<mxfile host="app.diagrams.net" agent="Mozilla/5.0 (Windows NT 10.0; Win64; x64) AppleWebKit/537.36 (KHTML, like Gecko) Chrome/131.0.0.0 Safari/537.36" version="25.0.3">
  <diagram name="Page-1" id="c4acf3e9-155e-7222-9cf6-157b1a14988f">
    <mxGraphModel dx="880" dy="2729" grid="1" gridSize="10" guides="1" tooltips="1" connect="1" arrows="1" fold="1" page="1" pageScale="1" pageWidth="850" pageHeight="1100" background="none" math="0" shadow="0">
      <root>
        <mxCell id="0" />
        <mxCell id="1" parent="0" />
        <mxCell id="5rYNvA1EGpWT4PLwYlTP-1" value="frame" style="shape=umlFrame;whiteSpace=wrap;html=1;pointerEvents=0;" parent="1" vertex="1">
          <mxGeometry x="120" y="-2120" width="580" height="560" as="geometry" />
        </mxCell>
        <mxCell id="5rYNvA1EGpWT4PLwYlTP-18" style="rounded=0;orthogonalLoop=1;jettySize=auto;html=1;endArrow=none;endFill=0;" parent="1" source="5rYNvA1EGpWT4PLwYlTP-2" target="5rYNvA1EGpWT4PLwYlTP-17" edge="1">
          <mxGeometry relative="1" as="geometry" />
        </mxCell>
        <mxCell id="5rYNvA1EGpWT4PLwYlTP-20" style="rounded=0;orthogonalLoop=1;jettySize=auto;html=1;endArrow=none;endFill=0;" parent="1" source="5rYNvA1EGpWT4PLwYlTP-2" target="5rYNvA1EGpWT4PLwYlTP-19" edge="1">
          <mxGeometry relative="1" as="geometry" />
        </mxCell>
        <mxCell id="5rYNvA1EGpWT4PLwYlTP-22" style="rounded=0;orthogonalLoop=1;jettySize=auto;html=1;entryX=0;entryY=0.5;entryDx=0;entryDy=0;endArrow=none;endFill=0;" parent="1" source="5rYNvA1EGpWT4PLwYlTP-2" target="5rYNvA1EGpWT4PLwYlTP-21" edge="1">
          <mxGeometry relative="1" as="geometry" />
        </mxCell>
        <mxCell id="5rYNvA1EGpWT4PLwYlTP-24" style="rounded=0;orthogonalLoop=1;jettySize=auto;html=1;entryX=0;entryY=0.5;entryDx=0;entryDy=0;endArrow=none;endFill=0;" parent="1" source="5rYNvA1EGpWT4PLwYlTP-2" target="5rYNvA1EGpWT4PLwYlTP-23" edge="1">
          <mxGeometry relative="1" as="geometry" />
        </mxCell>
        <mxCell id="JCjts5rAEiLWBCdYOJuN-2" style="rounded=0;orthogonalLoop=1;jettySize=auto;html=1;entryX=0;entryY=0.5;entryDx=0;entryDy=0;endArrow=none;endFill=0;" parent="1" source="5rYNvA1EGpWT4PLwYlTP-2" target="JCjts5rAEiLWBCdYOJuN-1" edge="1">
          <mxGeometry relative="1" as="geometry" />
        </mxCell>
        <mxCell id="5vsusdq0JppMegxdK2Lm-20" style="rounded=0;orthogonalLoop=1;jettySize=auto;html=1;entryX=0;entryY=0.5;entryDx=0;entryDy=0;endArrow=none;endFill=0;" edge="1" parent="1" source="5rYNvA1EGpWT4PLwYlTP-2" target="5vsusdq0JppMegxdK2Lm-18">
          <mxGeometry relative="1" as="geometry" />
        </mxCell>
        <mxCell id="5vsusdq0JppMegxdK2Lm-22" style="rounded=0;orthogonalLoop=1;jettySize=auto;html=1;endArrow=none;endFill=0;" edge="1" parent="1" source="5rYNvA1EGpWT4PLwYlTP-2" target="5vsusdq0JppMegxdK2Lm-21">
          <mxGeometry relative="1" as="geometry" />
        </mxCell>
        <mxCell id="5rYNvA1EGpWT4PLwYlTP-2" value="operador" style="shape=umlActor;verticalLabelPosition=bottom;verticalAlign=top;html=1;" parent="1" vertex="1">
          <mxGeometry x="20" y="-1850" width="30" height="60" as="geometry" />
        </mxCell>
        <mxCell id="5rYNvA1EGpWT4PLwYlTP-17" value="Manter&lt;br&gt;Marca" style="ellipse;whiteSpace=wrap;html=1;" parent="1" vertex="1">
          <mxGeometry x="200" y="-2090" width="90" height="60" as="geometry" />
        </mxCell>
        <mxCell id="5rYNvA1EGpWT4PLwYlTP-19" value="Manter&lt;br&gt;Condição de Uso" style="ellipse;whiteSpace=wrap;html=1;" parent="1" vertex="1">
          <mxGeometry x="210" y="-2010" width="90" height="60" as="geometry" />
        </mxCell>
        <mxCell id="5rYNvA1EGpWT4PLwYlTP-21" value="Manter &lt;br&gt;Categoria" style="ellipse;whiteSpace=wrap;html=1;" parent="1" vertex="1">
          <mxGeometry x="200" y="-1940" width="90" height="60" as="geometry" />
        </mxCell>
        <mxCell id="5rYNvA1EGpWT4PLwYlTP-23" value="Manter &lt;br&gt;Unidade&lt;br&gt;Medida" style="ellipse;whiteSpace=wrap;html=1;" parent="1" vertex="1">
          <mxGeometry x="192.5" y="-1870" width="125" height="60" as="geometry" />
        </mxCell>
        <mxCell id="JCjts5rAEiLWBCdYOJuN-1" value="&lt;font style=&quot;vertical-align: inherit;&quot;&gt;&lt;font style=&quot;vertical-align: inherit;&quot;&gt;Manter Modelo&lt;/font&gt;&lt;/font&gt;" style="ellipse;whiteSpace=wrap;html=1;" parent="1" vertex="1">
          <mxGeometry x="192.5" y="-1750" width="97.5" height="60" as="geometry" />
        </mxCell>
        <mxCell id="5vsusdq0JppMegxdK2Lm-6" style="rounded=0;orthogonalLoop=1;jettySize=auto;html=1;endArrow=none;endFill=0;" edge="1" parent="1" source="5vsusdq0JppMegxdK2Lm-1" target="5vsusdq0JppMegxdK2Lm-5">
          <mxGeometry relative="1" as="geometry" />
        </mxCell>
        <mxCell id="5vsusdq0JppMegxdK2Lm-1" value="secretário" style="shape=umlActor;verticalLabelPosition=bottom;verticalAlign=top;html=1;outlineConnect=0;" vertex="1" parent="1">
          <mxGeometry x="760" y="-2100" width="30" height="60" as="geometry" />
        </mxCell>
        <mxCell id="5vsusdq0JppMegxdK2Lm-5" value="&lt;font style=&quot;vertical-align: inherit;&quot;&gt;&lt;font style=&quot;vertical-align: inherit;&quot;&gt;Autorizar Cautela&lt;/font&gt;&lt;/font&gt;" style="ellipse;whiteSpace=wrap;html=1;" vertex="1" parent="1">
          <mxGeometry x="540" y="-1960" width="80" height="70" as="geometry" />
        </mxCell>
        <mxCell id="5vsusdq0JppMegxdK2Lm-10" style="rounded=0;orthogonalLoop=1;jettySize=auto;html=1;endArrow=none;endFill=0;" edge="1" parent="1" source="5vsusdq0JppMegxdK2Lm-7" target="5vsusdq0JppMegxdK2Lm-5">
          <mxGeometry relative="1" as="geometry" />
        </mxCell>
        <mxCell id="5vsusdq0JppMegxdK2Lm-7" value="Coordenador" style="shape=umlActor;verticalLabelPosition=bottom;verticalAlign=top;html=1;outlineConnect=0;" vertex="1" parent="1">
          <mxGeometry x="760" y="-1990" width="30" height="60" as="geometry" />
        </mxCell>
        <mxCell id="5vsusdq0JppMegxdK2Lm-13" style="rounded=0;orthogonalLoop=1;jettySize=auto;html=1;entryX=1.017;entryY=0.625;entryDx=0;entryDy=0;endArrow=none;endFill=0;entryPerimeter=0;" edge="1" parent="1" source="5vsusdq0JppMegxdK2Lm-11" target="5vsusdq0JppMegxdK2Lm-5">
          <mxGeometry relative="1" as="geometry" />
        </mxCell>
        <mxCell id="5vsusdq0JppMegxdK2Lm-11" value="Supervisor Nuarm&lt;div&gt;&lt;br&gt;&lt;/div&gt;" style="shape=umlActor;verticalLabelPosition=bottom;verticalAlign=top;html=1;outlineConnect=0;" vertex="1" parent="1">
          <mxGeometry x="770" y="-1880" width="30" height="60" as="geometry" />
        </mxCell>
        <mxCell id="5vsusdq0JppMegxdK2Lm-15" style="rounded=0;orthogonalLoop=1;jettySize=auto;html=1;endArrow=none;endFill=0;" edge="1" parent="1" source="5vsusdq0JppMegxdK2Lm-12" target="5vsusdq0JppMegxdK2Lm-5">
          <mxGeometry relative="1" as="geometry" />
        </mxCell>
        <mxCell id="5vsusdq0JppMegxdK2Lm-12" value="&lt;div&gt;Diretor do Gap&lt;/div&gt;" style="shape=umlActor;verticalLabelPosition=bottom;verticalAlign=top;html=1;outlineConnect=0;" vertex="1" parent="1">
          <mxGeometry x="770" y="-1780" width="30" height="60" as="geometry" />
        </mxCell>
        <mxCell id="5vsusdq0JppMegxdK2Lm-16" value="Cadastrar Cautela" style="ellipse;whiteSpace=wrap;html=1;" vertex="1" parent="1">
          <mxGeometry x="185" y="-1660" width="95" height="70" as="geometry" />
        </mxCell>
        <mxCell id="5vsusdq0JppMegxdK2Lm-17" style="rounded=0;orthogonalLoop=1;jettySize=auto;html=1;entryX=0.017;entryY=0.425;entryDx=0;entryDy=0;entryPerimeter=0;endArrow=none;endFill=0;" edge="1" parent="1" source="5rYNvA1EGpWT4PLwYlTP-2" target="5vsusdq0JppMegxdK2Lm-16">
          <mxGeometry relative="1" as="geometry" />
        </mxCell>
        <mxCell id="5vsusdq0JppMegxdK2Lm-18" value="Emitir Cautela" style="ellipse;whiteSpace=wrap;html=1;" vertex="1" parent="1">
          <mxGeometry x="290" y="-1820" width="100" height="60" as="geometry" />
        </mxCell>
        <mxCell id="5vsusdq0JppMegxdK2Lm-21" value="Cadastrar Produto" style="ellipse;whiteSpace=wrap;html=1;" vertex="1" parent="1">
          <mxGeometry x="330" y="-1690" width="80" height="60" as="geometry" />
        </mxCell>
        <mxCell id="5vsusdq0JppMegxdK2Lm-23" value="Cadastrar&lt;br&gt;Movimentação" style="ellipse;whiteSpace=wrap;html=1;" vertex="1" parent="1">
          <mxGeometry x="520" y="-1810" width="90" height="80" as="geometry" />
        </mxCell>
        <mxCell id="5vsusdq0JppMegxdK2Lm-25" value="&amp;lt;&amp;lt;extend&amp;gt;&amp;gt;" style="html=1;verticalAlign=bottom;endArrow=open;dashed=1;endSize=8;curved=0;rounded=0;" edge="1" parent="1">
          <mxGeometry relative="1" as="geometry">
            <mxPoint x="600" y="-1611" as="sourcePoint" />
            <mxPoint x="520" y="-1611" as="targetPoint" />
          </mxGeometry>
        </mxCell>
        <mxCell id="5vsusdq0JppMegxdK2Lm-26" value="" style="endArrow=block;endSize=16;endFill=0;html=1;rounded=0;" edge="1" parent="1">
          <mxGeometry width="160" relative="1" as="geometry">
            <mxPoint x="520" y="-1590" as="sourcePoint" />
            <mxPoint x="680" y="-1590" as="targetPoint" />
          </mxGeometry>
        </mxCell>
        <mxCell id="5vsusdq0JppMegxdK2Lm-27" value="&amp;lt;&amp;lt;include&amp;gt;&amp;gt;" style="endArrow=open;endSize=12;dashed=1;html=1;rounded=0;" edge="1" parent="1" source="5vsusdq0JppMegxdK2Lm-21">
          <mxGeometry width="160" relative="1" as="geometry">
            <mxPoint x="419.99640687119273" y="-1720.004271247462" as="sourcePoint" />
            <mxPoint x="517.57" y="-1762.72" as="targetPoint" />
          </mxGeometry>
        </mxCell>
        <mxCell id="5vsusdq0JppMegxdK2Lm-32" style="rounded=0;orthogonalLoop=1;jettySize=auto;html=1;exitX=0;exitY=0.3333333333333333;exitDx=0;exitDy=0;exitPerimeter=0;endArrow=none;endFill=0;" edge="1" parent="1" source="5vsusdq0JppMegxdK2Lm-29" target="5vsusdq0JppMegxdK2Lm-31">
          <mxGeometry relative="1" as="geometry" />
        </mxCell>
        <mxCell id="5vsusdq0JppMegxdK2Lm-29" value="Sistema" style="shape=umlActor;verticalLabelPosition=bottom;verticalAlign=top;html=1;" vertex="1" parent="1">
          <mxGeometry x="770" y="-1670" width="30" height="60" as="geometry" />
        </mxCell>
        <mxCell id="5vsusdq0JppMegxdK2Lm-30" style="rounded=0;orthogonalLoop=1;jettySize=auto;html=1;exitX=0;exitY=0.3333333333333333;exitDx=0;exitDy=0;exitPerimeter=0;entryX=0.75;entryY=0.975;entryDx=0;entryDy=0;entryPerimeter=0;endArrow=none;endFill=0;" edge="1" parent="1" source="5vsusdq0JppMegxdK2Lm-29" target="5vsusdq0JppMegxdK2Lm-23">
          <mxGeometry relative="1" as="geometry" />
        </mxCell>
        <mxCell id="5vsusdq0JppMegxdK2Lm-31" value="Cadastrar&lt;br&gt;Historico&lt;br&gt;Estoque" style="ellipse;whiteSpace=wrap;html=1;" vertex="1" parent="1">
          <mxGeometry x="510" y="-1720" width="90" height="80" as="geometry" />
        </mxCell>
      </root>
    </mxGraphModel>
  </diagram>
</mxfile>
